<svg width="21" height="16" viewBox="0 0 21 16" fill="none" xmlns="http://www.w3.org/2000/svg">
<path d="M9.97 4.70312C9.97 4.42188 10.0638 4.1875 10.2513 4C10.4544 3.79688 10.6966 3.69531 10.9778 3.69531C11.2591 3.69531 11.4934 3.78906 11.6809 3.97656C11.8841 4.17969 11.9856 4.42188 11.9856 4.70312C11.9856 4.96875 11.8919 5.19531 11.7044 5.38281C11.5013 5.58594 11.2591 5.6875 10.9778 5.6875C10.6966 5.6875 10.4622 5.59375 10.2747 5.40625C10.0716 5.20312 9.97 4.96875 9.97 4.70312ZM9.97 8.19531C9.97 7.91406 10.0638 7.67969 10.2513 7.49219C10.4544 7.28906 10.6966 7.1875 10.9778 7.1875C11.2591 7.1875 11.4934 7.28125 11.6809 7.46875C11.8841 7.67188 11.9856 7.91406 11.9856 8.19531C11.9856 8.46094 11.8919 8.6875 11.7044 8.875C11.5013 9.07812 11.2591 9.17969 10.9778 9.17969C10.6966 9.17969 10.4622 9.08594 10.2747 8.89844C10.0716 8.69531 9.97 8.46094 9.97 8.19531ZM9.97 11.6875C9.97 11.4219 10.0638 11.1953 10.2513 11.0078C10.4544 10.8047 10.6966 10.7031 10.9778 10.7031C11.2591 10.7031 11.4934 10.7969 11.6809 10.9844C11.8841 11.1875 11.9856 11.4219 11.9856 11.6875C11.9856 11.9688 11.8919 12.2031 11.7044 12.3906C11.5013 12.5938 11.2591 12.6953 10.9778 12.6953C10.6966 12.6953 10.4622 12.6016 10.2747 12.4141C10.0716 12.2109 9.97 11.9688 9.97 11.6875ZM18.97 2.71094H2.98563V4.16406C3.73563 4.53906 4.33719 5.08594 4.79031 5.80469C5.24344 6.53906 5.47 7.33594 5.47 8.19531C5.47 9.07031 5.24344 9.86719 4.79031 10.5859C4.33719 11.3047 3.73563 11.8516 2.98563 12.2266V13.6797H18.97V12.2266C18.22 11.8516 17.6184 11.3047 17.1653 10.5859C16.7122 9.86719 16.4856 9.07031 16.4856 8.19531C16.4856 7.33594 16.7122 6.54688 17.1653 5.82812C17.6184 5.09375 18.22 4.53906 18.97 4.16406V2.71094ZM20.9856 0.695312V5.71094C20.2981 5.71094 19.7122 5.95312 19.2278 6.4375C18.7278 6.92188 18.4778 7.50781 18.4778 8.19531C18.4778 8.88281 18.72 9.46875 19.2044 9.95312C19.7044 10.4531 20.2981 10.7031 20.9856 10.7031V15.6953H0.970001V10.7031C1.6575 10.7031 2.24344 10.4609 2.72781 9.97656C3.22781 9.47656 3.47781 8.88281 3.47781 8.19531C3.47781 7.50781 3.23563 6.92188 2.75125 6.4375C2.25125 5.95312 1.6575 5.71094 0.970001 5.71094V0.695312H20.9856Z" fill="black"/>
</svg>
