<svg width="21" height="17" viewBox="0 0 21 17" fill="none" xmlns="http://www.w3.org/2000/svg">
<path d="M19.2459 8.33594C20.1991 9.10156 20.6756 10.0859 20.6756 11.2891V16.0469H18.7538V14.1484H2.58188V16.0469H0.660004V11.2891C0.660004 10.0703 1.13657 9.08594 2.08969 8.33594V0.34375H19.2459V8.33594ZM17.3475 2.24219H3.98813V5.00781C4.8475 4.42969 5.80063 4.14062 6.8475 4.14062C8.42563 4.14062 9.69907 4.72656 10.6678 5.89844C11.6366 4.72656 12.91 4.14062 14.4881 4.14062C15.5506 4.14062 16.5038 4.4375 17.3475 5.03125V2.24219ZM17.0897 7.49219C16.8709 7.07031 16.5272 6.72656 16.0584 6.46094C15.5897 6.19531 15.0663 6.0625 14.4881 6.0625C13.91 6.0625 13.3944 6.1875 12.9413 6.4375C12.4725 6.70312 12.1209 7.04688 11.8866 7.46875H16.8553C16.8866 7.46875 16.9256 7.46875 16.9725 7.46875C17.0194 7.48438 17.0584 7.49219 17.0897 7.49219ZM9.44907 7.46875C9.21469 7.04688 8.87094 6.71094 8.41782 6.46094C7.94907 6.19531 7.42563 6.0625 6.8475 6.0625C6.26938 6.0625 5.74594 6.19531 5.27719 6.46094C4.80844 6.72656 4.46469 7.07031 4.24594 7.49219C4.27719 7.49219 4.31625 7.49219 4.36313 7.49219C4.42563 7.47656 4.46469 7.46875 4.48032 7.46875H9.44907ZM2.58188 12.2266H18.7538V11.2891C18.7538 10.7578 18.5741 10.3125 18.2147 9.95312C17.8397 9.57812 17.3866 9.39062 16.8553 9.39062H4.48032C3.94907 9.39062 3.50375 9.57031 3.14438 9.92969C2.76938 10.3047 2.58188 10.7578 2.58188 11.2891V12.2266Z" fill="black"/>
</svg>
