<svg width="17" height="21" viewBox="0 0 17 21" fill="none" xmlns="http://www.w3.org/2000/svg">
<path d="M8.4622 20.25C7.61845 20.25 6.90752 19.9609 6.32939 19.3828C5.75127 18.8047 5.4622 18.0938 5.4622 17.25H11.4622C11.4622 18.0938 11.181 18.8047 10.6185 19.3828C10.0403 19.9609 9.32158 20.25 8.4622 20.25ZM16.1731 14.1562C16.3919 14.2656 16.4544 14.3984 16.3606 14.5547V15.75C16.3763 15.7812 16.3841 15.8281 16.3841 15.8906C16.3841 16.125 16.2435 16.2422 15.9622 16.2422H0.868454C0.602829 16.2422 0.470016 16.0781 0.470016 15.75V14.5547C0.470016 14.4141 0.571579 14.2422 0.774704 14.0391L2.36845 13.2422H2.4622C2.4622 12.7422 2.4622 12.1797 2.4622 11.5547C2.47783 10.9297 2.49345 10.3516 2.50908 9.82031C2.5247 9.27344 2.53252 8.77344 2.53252 8.32031C2.54814 7.85156 2.55595 7.47656 2.55595 7.19531C2.57158 6.91406 2.57939 6.76562 2.57939 6.75C2.56377 6.70312 2.55595 6.63281 2.55595 6.53906C2.55595 4.25781 3.86064 2.85938 6.47002 2.34375V2.15625C6.47002 1.60938 6.66533 1.14062 7.05595 0.75C7.44658 0.34375 7.91533 0.140625 8.4622 0.140625C9.00908 0.140625 9.47783 0.335938 9.86845 0.726562C10.2747 1.13281 10.4778 1.60938 10.4778 2.15625V2.34375C11.681 2.60938 12.6419 3.10156 13.3606 3.82031C14.095 4.55469 14.4622 5.5 14.4622 6.65625V13.2422H14.5794L16.1731 14.1562ZM12.47 14.25V6.65625C12.47 6.15625 12.3372 5.73438 12.0716 5.39062C11.806 5.04688 11.4544 4.80469 11.0169 4.66406C10.5638 4.50781 10.1419 4.39844 9.75127 4.33594C9.34502 4.27344 8.91533 4.24219 8.4622 4.24219C8.41533 4.24219 8.34502 4.24219 8.25127 4.24219C8.14189 4.22656 8.06377 4.21875 8.01689 4.21875C6.92314 4.21875 5.93877 4.53125 5.06377 5.15625C4.72002 5.5 4.54814 5.92969 4.54814 6.44531C4.54814 6.57031 4.55595 6.67188 4.57158 6.75V6.9375C4.57158 6.96875 4.55595 7.9375 4.5247 9.84375C4.49345 11.75 4.47783 13.2188 4.47783 14.25H12.47Z" fill="black"/>
</svg>
