<svg width="21" height="19" viewBox="0 0 21 19" fill="none" xmlns="http://www.w3.org/2000/svg">
<path d="M12.9935 16.2266C12.9935 15.6797 13.1888 15.2109 13.5794 14.8203C13.9857 14.4141 14.4622 14.2109 15.0091 14.2109C15.556 14.2109 16.0247 14.4062 16.4153 14.7969C16.806 15.2031 17.0013 15.6797 17.0013 16.2266C17.0013 16.7734 16.806 17.2422 16.4153 17.6328C16.0247 18.0234 15.556 18.2188 15.0091 18.2188C14.4622 18.2188 13.9935 18.0234 13.6028 17.6328C13.1966 17.2422 12.9935 16.7734 12.9935 16.2266ZM5.00128 16.2266C5.00128 15.6797 5.19659 15.2109 5.58722 14.8203C5.97784 14.4141 6.44659 14.2109 6.99347 14.2109C7.54034 14.2109 8.00909 14.4062 8.39972 14.7969C8.80597 15.2031 9.00909 15.6797 9.00909 16.2266C9.00909 16.7734 8.81378 17.2422 8.42316 17.6328C8.01691 18.0234 7.54034 18.2188 6.99347 18.2188C6.44659 18.2188 5.97784 18.0234 5.58722 17.6328C5.19659 17.2422 5.00128 16.7734 5.00128 16.2266ZM20.47 7.29688C20.595 7.29688 20.6966 7.33594 20.7747 7.41406C20.8685 7.50781 20.9153 7.61719 20.9153 7.74219C20.9153 7.75781 20.8997 7.8125 20.8685 7.90625L19.8841 13.7891C19.8841 13.8828 19.8294 13.9688 19.72 14.0469C19.595 14.1406 19.4778 14.1875 19.3685 14.1875H3.47784C3.14972 14.1875 2.98566 14.0234 2.98566 13.6953L1.97784 2.1875H1.48566C1.14191 2.1875 0.970032 2.02344 0.970032 1.69531V0.6875C0.970032 0.546875 1.01691 0.429688 1.11066 0.335938C1.20441 0.242188 1.32941 0.195312 1.48566 0.195312H3.47784C3.80597 0.195312 3.97003 0.359375 3.97003 0.6875V1.08594L4.88409 11.7031C4.88409 12.0312 5.04816 12.1953 5.37628 12.1953H17.681C17.8216 12.1953 17.9388 12.1562 18.0325 12.0781C18.1263 11.9844 18.1732 11.8906 18.1732 11.7969L18.8763 7.48438C18.97 7.21875 19.1732 7.08594 19.4857 7.08594L20.47 7.29688Z" fill="black"/>
</svg>
