<svg width="13" height="13" viewBox="0 0 13 13" fill="none" xmlns="http://www.w3.org/2000/svg">
<path d="M3.73047 11.314C2.8099 10.7671 2.08529 10.0379 1.55664 9.12646C1.01888 8.20589 0.75 7.20785 0.75 6.13232C0.75 5.0568 1.01888 4.05876 1.55664 3.13818C2.08529 2.22673 2.8099 1.49756 3.73047 0.950684C4.64193 0.422038 5.63997 0.157715 6.72461 0.157715C7.81836 0.157715 8.82096 0.422038 9.73242 0.950684C10.653 1.49756 11.3776 2.22673 11.9062 3.13818C12.444 4.05876 12.7129 5.0568 12.7129 6.13232C12.7129 7.20785 12.444 8.20589 11.9062 9.12646C11.3776 10.0379 10.653 10.7671 9.73242 11.314C8.82096 11.8426 7.81836 12.1069 6.72461 12.1069C5.63997 12.1069 4.64193 11.8426 3.73047 11.314Z" fill="#04AA6C"/>
</svg>
