<svg width="13" height="13" viewBox="0 0 13 13" fill="none" xmlns="http://www.w3.org/2000/svg">
<path d="M3.73047 11.314C2.8099 10.7671 2.08529 10.0379 1.55664 9.12646C1.01888 8.20589 0.75 7.20785 0.75 6.13232C0.75 5.0568 1.01888 4.05876 1.55664 3.13818C2.08529 2.22673 2.8099 1.49756 3.73047 0.950684C4.64193 0.422038 5.63997 0.157715 6.72461 0.157715C7.81836 0.157715 8.82096 0.422038 9.73242 0.950684C10.653 1.49756 11.3776 2.22673 11.9062 3.13818C12.444 4.05876 12.7129 5.0568 12.7129 6.13232C12.7129 7.20785 12.444 8.20589 11.9062 9.12646C11.3776 10.0379 10.653 10.7671 9.73242 11.314C8.82096 11.8426 7.81836 12.1069 6.72461 12.1069C5.63997 12.1069 4.64193 11.8426 3.73047 11.314ZM8.98047 10.0151C9.67318 9.59587 10.2201 9.04899 10.6211 8.37451C11.0221 7.6818 11.2227 6.93441 11.2227 6.13232C11.2227 5.33024 11.0221 4.58285 10.6211 3.89014C10.2109 3.18831 9.66406 2.64144 8.98047 2.24951C8.28776 1.83936 7.53581 1.63428 6.72461 1.63428C5.91341 1.63428 5.16602 1.83936 4.48242 2.24951C3.79883 2.64144 3.25195 3.18831 2.8418 3.89014C2.44076 4.58285 2.24023 5.33024 2.24023 6.13232C2.24023 6.93441 2.44076 7.6818 2.8418 8.37451C3.25195 9.07633 3.79883 9.62321 4.48242 10.0151C5.1569 10.4071 5.9043 10.603 6.72461 10.603C7.53581 10.603 8.28776 10.4071 8.98047 10.0151Z" fill="#04AA6C"/>
</svg>
