<svg width="21" height="18" viewBox="0 0 21 18" fill="none" xmlns="http://www.w3.org/2000/svg">
<path d="M10.0978 17.9141C5.59783 14.0234 2.76971 11.3594 1.61346 9.92188C0.597832 8.67188 0.0900192 7.32031 0.0900192 5.86719C0.0900192 4.35156 0.629082 3.09375 1.70721 2.09375C2.83221 1.01562 4.19939 0.476562 5.80877 0.476562C7.41814 0.476562 8.78533 1.01562 9.91033 2.09375L10.0744 2.25781L10.2385 2.09375C11.3947 1.01562 12.7619 0.476562 14.34 0.476562C15.9338 0.476562 17.3088 1.01562 18.465 2.09375C19.5588 3.14062 20.1056 4.39844 20.1056 5.86719C20.1056 7.30469 19.5822 8.66406 18.5353 9.94531C18.0197 10.5703 17.0588 11.5469 15.6525 12.875C14.2463 14.2031 12.9728 15.375 11.8322 16.3906L10.0978 17.9141ZM5.80877 2.46875C4.74627 2.46875 3.84002 2.82031 3.09002 3.52344C2.41814 4.17969 2.08221 4.94531 2.08221 5.82031C2.08221 6.83594 2.44158 7.78125 3.16033 8.65625C4.09783 9.79688 6.41033 12 10.0978 15.2656C13.8166 11.9375 16.1135 9.73438 16.9885 8.65625C17.7228 7.76562 18.09 6.83594 18.09 5.86719C18.09 4.97656 17.7541 4.20312 17.0822 3.54688C16.3322 2.82812 15.4181 2.46875 14.34 2.46875C13.2775 2.46875 12.3713 2.82812 11.6213 3.54688L10.0744 5L8.52752 3.52344C7.77752 2.82031 6.87127 2.46875 5.80877 2.46875Z" fill="black"/>
</svg>
