<svg width="21" height="21" viewBox="0 0 21 21" fill="none" xmlns="http://www.w3.org/2000/svg">
<path d="M10.7241 0.1875L20.6381 6.79688V20.2031H0.809998V6.79688L10.7241 0.1875ZM18.6459 18.2109V7.85156L10.7241 2.57812L2.80219 7.85156V18.2109H18.6459ZM7.77094 8.8125C8.41156 8.8125 8.98187 9 9.48187 9.375C9.98187 9.75 10.3334 10.2266 10.5366 10.8047H16.6537V12.7734H14.685V14.7656H12.6928V12.7734H10.5366C10.3334 13.3516 9.98187 13.8281 9.48187 14.2031C8.98187 14.5781 8.41156 14.7656 7.77094 14.7656C6.95844 14.7656 6.26312 14.4766 5.685 13.8984C5.09125 13.3203 4.79437 12.6172 4.79437 11.7891C4.79437 10.9609 5.08344 10.2578 5.66156 9.67969C6.25531 9.10156 6.95844 8.8125 7.77094 8.8125ZM7.77094 12.7734C8.03656 12.7734 8.26312 12.6797 8.45062 12.4922C8.65375 12.3047 8.75531 12.0703 8.75531 11.7891C8.75531 11.5234 8.66156 11.2969 8.47406 11.1094C8.27094 10.9062 8.03656 10.8047 7.77094 10.8047C7.48969 10.8047 7.25531 10.8984 7.06781 11.0859C6.86469 11.2891 6.76312 11.5234 6.76312 11.7891C6.76312 12.0703 6.85687 12.3047 7.04437 12.4922C7.2475 12.6797 7.48969 12.7734 7.77094 12.7734Z" fill="black"/>
</svg>
