<svg width="12" height="13" viewBox="0 0 12 13" fill="none" xmlns="http://www.w3.org/2000/svg">
<path d="M2.98047 11.314C2.0599 10.7671 1.33529 10.0379 0.806641 9.12646C0.26888 8.20589 0 7.20785 0 6.13232C0 5.0568 0.26888 4.05876 0.806641 3.13818C1.33529 2.22673 2.0599 1.49756 2.98047 0.950684C3.89193 0.422038 4.88997 0.157715 5.97461 0.157715C7.06836 0.157715 8.07096 0.422038 8.98242 0.950684C9.903 1.49756 10.6276 2.22673 11.1562 3.13818C11.694 4.05876 11.9629 5.0568 11.9629 6.13232C11.9629 7.20785 11.694 8.20589 11.1562 9.12646C10.6276 10.0379 9.903 10.7671 8.98242 11.314C8.07096 11.8426 7.06836 12.1069 5.97461 12.1069C4.88997 12.1069 3.89193 11.8426 2.98047 11.314ZM8.23047 10.0151C8.92318 9.59587 9.47005 9.04899 9.87109 8.37451C10.2721 7.6818 10.4727 6.93441 10.4727 6.13232C10.4727 5.33024 10.2721 4.58285 9.87109 3.89014C9.46094 3.18831 8.91406 2.64144 8.23047 2.24951C7.53776 1.83936 6.78581 1.63428 5.97461 1.63428V10.603H5.98828C6.79036 10.603 7.53776 10.4071 8.23047 10.0151Z" fill="#04AA6C"/>
</svg>
