<svg width="21" height="6" viewBox="0 0 21 6" fill="none" xmlns="http://www.w3.org/2000/svg">
<path d="M0.440033 3.10156C0.440033 2.41406 0.68222 1.82812 1.1666 1.34375C1.6666 0.84375 2.26035 0.59375 2.94785 0.59375C3.63535 0.59375 4.22128 0.835938 4.70566 1.32031C5.20566 1.82031 5.45566 2.41406 5.45566 3.10156C5.45566 3.78906 5.21347 4.375 4.7291 4.85938C4.2291 5.34375 3.63535 5.58594 2.94785 5.58594C2.26035 5.58594 1.67441 5.34375 1.19003 4.85938C0.690033 4.375 0.440033 3.78906 0.440033 3.10156ZM15.44 3.10156C15.44 2.41406 15.6822 1.82812 16.1666 1.34375C16.6666 0.84375 17.2603 0.59375 17.9478 0.59375C18.6353 0.59375 19.2213 0.835938 19.7057 1.32031C20.2057 1.82031 20.4557 2.41406 20.4557 3.10156C20.4557 3.78906 20.2135 4.375 19.7291 4.85938C19.2291 5.34375 18.6353 5.58594 17.9478 5.58594C17.2603 5.58594 16.6744 5.34375 16.19 4.85938C15.69 4.375 15.44 3.78906 15.44 3.10156ZM7.94003 3.10156C7.94003 2.41406 8.18222 1.82812 8.6666 1.34375C9.1666 0.84375 9.76035 0.59375 10.4478 0.59375C11.1353 0.59375 11.7213 0.835938 12.2057 1.32031C12.7057 1.82031 12.9557 2.41406 12.9557 3.10156C12.9557 3.78906 12.7135 4.375 12.2291 4.85938C11.7291 5.34375 11.1353 5.58594 10.4478 5.58594C9.76035 5.58594 9.17441 5.34375 8.69003 4.85938C8.19003 4.375 7.94003 3.78906 7.94003 3.10156Z" fill="black"/>
</svg>
