<svg width="22" height="15" viewBox="0 0 22 15" fill="none" xmlns="http://www.w3.org/2000/svg">
<path d="M18.542 5.521C18.1839 4.90251 17.9479 4.17822 17.834 3.34814C17.8177 3.23421 17.8096 3.06331 17.8096 2.83545C17.8096 2.15186 17.9561 1.50895 18.249 0.906738L18.4199 0.589355L18.5908 0.906738C18.9652 1.65544 19.2012 2.43669 19.2988 3.25049C19.3314 3.3807 19.3477 3.57601 19.3477 3.83643C19.3477 4.45492 19.1849 5.02458 18.8594 5.54541L18.6885 5.76514L18.542 5.521ZM18.9082 8.67041C18.8919 8.55648 18.8838 8.38558 18.8838 8.15771C18.8838 7.50667 18.9733 6.92074 19.1523 6.3999C19.3965 5.5861 19.8522 4.89437 20.5195 4.32471L20.7881 4.10498L20.8125 4.47119C20.8288 4.55257 20.8369 4.68278 20.8369 4.86182C20.8369 5.59424 20.7311 6.27783 20.5195 6.9126C20.3079 7.74268 19.8604 8.37744 19.1768 8.81689L18.9326 8.96338L18.9082 8.67041ZM16.1494 14.8716L15.8809 14.8228L16.0029 14.5786C16.4912 13.9438 17.0527 13.423 17.6875 13.0161C18.4362 12.5767 19.2174 12.3569 20.0312 12.3569H20.0801L20.4463 12.3813L20.2266 12.6743C19.6895 13.3416 19.0791 13.8869 18.3955 14.3101C17.8584 14.7007 17.2399 14.896 16.54 14.896C16.361 14.896 16.2308 14.8879 16.1494 14.8716ZM21.0078 8.27979L21.3496 8.18213L21.252 8.52393C21.0404 9.27262 20.6742 9.99691 20.1533 10.6968C19.6976 11.4129 19.071 11.8687 18.2734 12.064L17.9805 12.1128L18.0293 11.8442C18.2246 11.0793 18.5583 10.3875 19.0303 9.76904C19.5837 9.06917 20.2428 8.57275 21.0078 8.27979ZM3.16113 5.76514L2.99023 5.54541C2.66471 5.02458 2.50195 4.45492 2.50195 3.83643C2.50195 3.57601 2.51823 3.3807 2.55078 3.25049C2.64844 2.43669 2.88444 1.65544 3.25879 0.906738L3.42969 0.589355L3.60059 0.906738C3.89355 1.50895 4.04004 2.15999 4.04004 2.85986C4.04004 3.07145 4.0319 3.23421 4.01562 3.34814C3.91797 4.12939 3.68197 4.85368 3.30762 5.521L3.16113 5.76514ZM2.67285 8.81689C1.98926 8.37744 1.54167 7.74268 1.33008 6.9126C1.11849 6.27783 1.0127 5.59424 1.0127 4.86182C1.0127 4.68278 1.02083 4.55257 1.03711 4.47119L1.06152 4.10498L1.33008 4.32471C1.9974 4.89437 2.45312 5.5861 2.69727 6.3999C2.8763 6.92074 2.96582 7.50667 2.96582 8.15771C2.96582 8.38558 2.95768 8.55648 2.94141 8.67041L2.91699 8.96338L2.67285 8.81689ZM5.7002 14.8716C5.60254 14.8879 5.47233 14.896 5.30957 14.896C4.62598 14.896 3.99935 14.7007 3.42969 14.3101C2.72982 13.8543 2.11947 13.3091 1.59863 12.6743L1.40332 12.3813L1.76953 12.3569H1.81836C2.64844 12.3569 3.42155 12.5767 4.1377 13.0161C4.82129 13.4393 5.38281 13.9601 5.82227 14.5786L5.96875 14.8228L5.7002 14.8716ZM3.57617 12.064C2.79492 11.8687 2.16829 11.4211 1.69629 10.7212C1.17546 9.98877 0.809245 9.25635 0.597656 8.52393L0.5 8.18213L0.841797 8.27979C1.63932 8.60531 2.2985 9.10173 2.81934 9.76904C3.29134 10.4201 3.625 11.1118 3.82031 11.8442L3.86914 12.1128L3.57617 12.064ZM6.82324 8.42627C6.82324 8.1333 6.92904 7.88102 7.14062 7.66943C7.35221 7.45785 7.60449 7.35205 7.89746 7.35205C8.19043 7.35205 8.44271 7.45785 8.6543 7.66943C8.86589 7.88102 8.97168 8.1333 8.97168 8.42627C8.97168 8.73551 8.86589 8.98779 8.6543 9.18311C8.44271 9.39469 8.19043 9.50049 7.89746 9.50049C7.60449 9.50049 7.35221 9.40283 7.14062 9.20752C6.92904 8.99593 6.82324 8.73551 6.82324 8.42627ZM12.8779 8.42627C12.8779 8.1333 12.9837 7.88102 13.1953 7.66943C13.4069 7.45785 13.6592 7.35205 13.9521 7.35205C14.2451 7.35205 14.4974 7.45785 14.709 7.66943C14.9206 7.88102 15.0264 8.1333 15.0264 8.42627C15.0264 8.73551 14.9206 8.98779 14.709 9.18311C14.4974 9.39469 14.2451 9.50049 13.9521 9.50049C13.6592 9.50049 13.4069 9.40283 13.1953 9.20752C12.9837 8.99593 12.8779 8.73551 12.8779 8.42627ZM16.9795 5.10596L16.0029 6.20459C16.654 6.77425 16.9795 7.51481 16.9795 8.42627C16.9795 9.27262 16.6865 9.98877 16.1006 10.5747C15.5146 11.1606 14.7985 11.4536 13.9521 11.4536C13.1383 11.4536 12.4548 11.1851 11.9014 10.6479L10.9248 11.7222L9.94824 10.6479C9.39486 11.1851 8.71126 11.4536 7.89746 11.4536C7.05111 11.4536 6.33496 11.1606 5.74902 10.5747C5.16309 9.98877 4.87012 9.27262 4.87012 8.42627C4.87012 7.51481 5.19564 6.77425 5.84668 6.20459L4.87012 5.10596H7.06738C8.23926 4.32471 9.52507 3.93408 10.9248 3.93408C12.3571 3.93408 13.6429 4.32471 14.7822 5.10596H16.9795ZM7.89746 10.4771C8.46712 10.4771 8.94727 10.2817 9.33789 9.89111C9.74479 9.48421 9.94824 8.99593 9.94824 8.42627C9.94824 7.85661 9.74479 7.37646 9.33789 6.98584C8.93099 6.57894 8.45085 6.37549 7.89746 6.37549C7.34408 6.37549 6.86393 6.5708 6.45703 6.96143C6.05013 7.36833 5.84668 7.85661 5.84668 8.42627C5.84668 8.99593 6.04199 9.47607 6.43262 9.8667C6.83952 10.2736 7.3278 10.4771 7.89746 10.4771ZM10.9248 8.37744C10.9248 7.7264 11.1364 7.12419 11.5596 6.5708C11.9827 6.01742 12.528 5.61865 13.1953 5.37451C12.4792 5.06527 11.7223 4.91064 10.9248 4.91064C10.1273 4.91064 9.37044 5.06527 8.6543 5.37451C9.32161 5.61865 9.86686 6.01742 10.29 6.5708C10.7132 7.12419 10.9248 7.7264 10.9248 8.37744ZM16.0029 8.42627C16.0029 7.85661 15.7995 7.37646 15.3926 6.98584C14.9857 6.57894 14.5055 6.37549 13.9521 6.37549C13.3988 6.37549 12.9186 6.5708 12.5117 6.96143C12.1048 7.36833 11.9014 7.85661 11.9014 8.42627C11.9014 8.99593 12.0967 9.47607 12.4873 9.8667C12.8942 10.2736 13.3825 10.4771 13.9521 10.4771C14.5218 10.4771 15.002 10.2817 15.3926 9.89111C15.7995 9.48421 16.0029 8.99593 16.0029 8.42627Z" fill="black"/>
</svg>
