<svg width="21" height="21" viewBox="0 0 21 21" fill="none" xmlns="http://www.w3.org/2000/svg">
<path d="M20.1894 2.20312C20.5019 2.70312 20.6972 3.28125 20.7753 3.9375C20.791 4.03125 20.7988 4.16406 20.7988 4.33594C20.7988 4.80469 20.7128 5.28125 20.541 5.76562C20.3378 6.35938 20.0097 6.875 19.5566 7.3125L8.28314 18.6094L1.25189 20.2031H1.18158C1.15033 20.2031 1.10345 20.1875 1.04095 20.1562C0.978455 20.125 0.939392 20.0938 0.923767 20.0625C0.876892 20.0156 0.853455 19.9688 0.853455 19.9219C0.83783 19.8906 0.830017 19.8438 0.830017 19.7812L2.37689 12.6797L13.5566 1.5C14.4316 0.65625 15.4785 0.21875 16.6972 0.1875H16.7206C17.5175 0.1875 18.2519 0.414062 18.9238 0.867188C19.4706 1.24219 19.8925 1.6875 20.1894 2.20312ZM17.9394 4.80469C18.0019 4.61719 18.0253 4.42188 18.0097 4.21875C17.9785 3.98438 17.9081 3.78906 17.7988 3.63281C17.6738 3.42969 17.5253 3.27344 17.3535 3.16406C17.1503 3.03906 16.9316 2.97656 16.6972 2.97656C16.2441 2.97656 15.8535 3.14062 15.5253 3.46875L4.95502 14.0859L4.39252 16.6406L6.87689 16.0547L17.6113 5.32031C17.7675 5.16406 17.8769 4.99219 17.9394 4.80469Z" fill="black"/>
</svg>
