<svg width="13" height="11" viewBox="0 0 13 11" fill="none" xmlns="http://www.w3.org/2000/svg">
<path d="M3.00488 3.74219C3.00488 3.48828 3.09766 3.26855 3.2832 3.08301C3.46875 2.89746 3.68848 2.80469 3.94238 2.80469C4.19629 2.80469 4.41602 2.89746 4.60156 3.08301C4.78711 3.26855 4.87988 3.48828 4.87988 3.74219C4.87988 4.00586 4.78711 4.22559 4.60156 4.40137C4.41602 4.58691 4.19629 4.67969 3.94238 4.67969C3.68848 4.67969 3.46875 4.5918 3.2832 4.41602C3.09766 4.23047 3.00488 4.00586 3.00488 3.74219ZM3.3125 7.81445C3.21484 7.81445 3.13672 7.78516 3.07812 7.72656C3.00977 7.6582 2.97559 7.58008 2.97559 7.49219C2.97559 7.41406 3.00488 7.33105 3.06348 7.24316L4.05957 6.37891C4.12793 6.31055 4.21582 6.27637 4.32324 6.27637C4.4209 6.27637 4.50391 6.31055 4.57227 6.37891L5.26074 7.05273C5.31934 7.12109 5.40234 7.15527 5.50977 7.15527C5.60742 7.15527 5.69043 7.12109 5.75879 7.05273L7.63379 5.36816C7.69238 5.30957 7.77539 5.28027 7.88281 5.28027C7.99023 5.28027 8.07324 5.30957 8.13184 5.36816L10.373 7.24316C10.4316 7.29199 10.4609 7.36523 10.4609 7.46289C10.4609 7.56055 10.4316 7.64355 10.373 7.71191C10.3145 7.78027 10.2314 7.81445 10.124 7.81445H3.3125ZM12.6875 0.314453C12.9023 0.314453 13.0098 0.416992 13.0098 0.62207V9.99707C13.0098 10.2021 12.9023 10.3047 12.6875 10.3047H0.822266C0.607422 10.3047 0.5 10.2021 0.5 9.99707V0.62207C0.5 0.416992 0.607422 0.314453 0.822266 0.314453H12.6875ZM11.75 9.05957V1.55957H1.75977V9.05957H11.75Z" fill="white"/>
</svg>
