<svg width="21" height="20" viewBox="0 0 21 20" fill="none" xmlns="http://www.w3.org/2000/svg">
<path d="M12.9503 12.5859L18.6222 18.2578L17.2862 19.5938L11.6143 13.9219L8.8956 16.6406L7.23154 15L2.61435 19.6172L1.27841 18.2812L5.8956 13.6641L1.23154 9C0.497162 8.26562 0.129974 7.375 0.129974 6.32812C0.129974 5.29688 0.497162 4.41406 1.23154 3.67969L2.61435 2.27344L9.97372 9.60938L10.3253 9.25781C9.91904 8.63281 9.71591 7.91406 9.71591 7.10156C9.71591 5.97656 10.1143 5.01562 10.9112 4.21875L14.3565 0.773438L15.6925 2.10938L12.2472 5.55469C11.8097 5.97656 11.5909 6.49219 11.5909 7.10156C11.5909 7.36719 11.6378 7.61719 11.7315 7.85156L16.6534 2.92969L17.9893 4.26562L12.9268 9.30469C13.2081 9.53906 13.4581 9.6875 13.6768 9.75C13.7393 9.78125 13.8175 9.79688 13.9112 9.79688C14.1143 9.79688 14.3253 9.6875 14.544 9.46875L18.8097 5.20312L20.1456 6.53906L15.88 10.8047C15.2862 11.3984 14.6378 11.6953 13.9347 11.6953C13.7159 11.6953 13.4347 11.6484 13.0909 11.5547C12.6222 11.3984 12.1222 11.0938 11.5909 10.6406L11.3097 10.9453L12.9503 12.5859ZM8.8956 13.9922L10.2784 12.5859L2.63779 4.94531L2.56747 4.99219C2.2081 5.38281 2.02841 5.83594 2.02841 6.35156C2.02841 6.86719 2.2081 7.30469 2.56747 7.66406L8.8956 13.9922Z" fill="black"/>
</svg>
